<mxfile host="app.diagrams.net" agent="Mozilla/5.0 (Windows NT 10.0; Win64; x64) AppleWebKit/537.36 (KHTML, like Gecko) Chrome/131.0.0.0 Safari/537.36" version="25.0.3">
  <diagram id="R2lEEEUBdFMjLlhIrx00" name="Page-1">
    <mxGraphModel dx="792" dy="1131" grid="1" gridSize="10" guides="1" tooltips="1" connect="1" arrows="1" fold="1" page="1" pageScale="1" pageWidth="850" pageHeight="1100" math="0" shadow="0" extFonts="Permanent Marker^https://fonts.googleapis.com/css?family=Permanent+Marker">
      <root>
        <mxCell id="0" />
        <mxCell id="1" parent="0" />
        <mxCell id="DiCBoK7EQ5oCpldY1Xnq-1" value="Teabekeskus/ Information Portal (web interface)" style="shape=module;align=left;spacingLeft=20;align=center;verticalAlign=top;whiteSpace=wrap;html=1;" vertex="1" parent="1">
          <mxGeometry x="210" y="300" width="460" height="50" as="geometry" />
        </mxCell>
        <mxCell id="DiCBoK7EQ5oCpldY1Xnq-2" value="Data catalogue" style="shape=module;align=left;spacingLeft=20;align=center;verticalAlign=top;whiteSpace=wrap;html=1;" vertex="1" parent="1">
          <mxGeometry x="120" y="500" width="610" height="50" as="geometry" />
        </mxCell>
        <mxCell id="DiCBoK7EQ5oCpldY1Xnq-5" value="DWH metadata" style="shape=module;align=left;spacingLeft=20;align=center;verticalAlign=top;whiteSpace=wrap;html=1;" vertex="1" parent="1">
          <mxGeometry x="120" y="660" width="100" height="50" as="geometry" />
        </mxCell>
        <mxCell id="DiCBoK7EQ5oCpldY1Xnq-6" value="Services databases" style="shape=module;align=left;spacingLeft=20;align=center;verticalAlign=top;whiteSpace=wrap;html=1;" vertex="1" parent="1">
          <mxGeometry x="260" y="660" width="100" height="50" as="geometry" />
        </mxCell>
        <mxCell id="DiCBoK7EQ5oCpldY1Xnq-7" value="Modeling tools" style="shape=module;align=left;spacingLeft=20;align=center;verticalAlign=top;whiteSpace=wrap;html=1;" vertex="1" parent="1">
          <mxGeometry x="390" y="660" width="100" height="50" as="geometry" />
        </mxCell>
        <mxCell id="DiCBoK7EQ5oCpldY1Xnq-8" value="ETL tools" style="shape=module;align=left;spacingLeft=20;align=center;verticalAlign=top;whiteSpace=wrap;html=1;" vertex="1" parent="1">
          <mxGeometry x="520" y="660" width="100" height="50" as="geometry" />
        </mxCell>
        <mxCell id="DiCBoK7EQ5oCpldY1Xnq-9" value="Data quality tools" style="shape=module;align=left;spacingLeft=20;align=center;verticalAlign=top;whiteSpace=wrap;html=1;" vertex="1" parent="1">
          <mxGeometry x="640" y="660" width="100" height="50" as="geometry" />
        </mxCell>
        <mxCell id="DiCBoK7EQ5oCpldY1Xnq-10" style="edgeStyle=orthogonalEdgeStyle;rounded=0;orthogonalLoop=1;jettySize=auto;html=1;entryX=0.467;entryY=0.94;entryDx=0;entryDy=0;entryPerimeter=0;" edge="1" parent="1" source="DiCBoK7EQ5oCpldY1Xnq-2" target="DiCBoK7EQ5oCpldY1Xnq-1">
          <mxGeometry relative="1" as="geometry" />
        </mxCell>
        <mxCell id="DiCBoK7EQ5oCpldY1Xnq-11" value="serves" style="edgeLabel;html=1;align=center;verticalAlign=middle;resizable=0;points=[];" vertex="1" connectable="0" parent="DiCBoK7EQ5oCpldY1Xnq-10">
          <mxGeometry x="0.0852" y="-2" relative="1" as="geometry">
            <mxPoint as="offset" />
          </mxGeometry>
        </mxCell>
        <mxCell id="DiCBoK7EQ5oCpldY1Xnq-15" style="edgeStyle=orthogonalEdgeStyle;rounded=0;orthogonalLoop=1;jettySize=auto;html=1;entryX=0.083;entryY=1.02;entryDx=0;entryDy=0;entryPerimeter=0;" edge="1" parent="1" source="DiCBoK7EQ5oCpldY1Xnq-5" target="DiCBoK7EQ5oCpldY1Xnq-2">
          <mxGeometry relative="1" as="geometry" />
        </mxCell>
        <mxCell id="DiCBoK7EQ5oCpldY1Xnq-16" style="edgeStyle=orthogonalEdgeStyle;rounded=0;orthogonalLoop=1;jettySize=auto;html=1;entryX=0.311;entryY=1.02;entryDx=0;entryDy=0;entryPerimeter=0;" edge="1" parent="1" source="DiCBoK7EQ5oCpldY1Xnq-6" target="DiCBoK7EQ5oCpldY1Xnq-2">
          <mxGeometry relative="1" as="geometry" />
        </mxCell>
        <mxCell id="DiCBoK7EQ5oCpldY1Xnq-17" style="edgeStyle=orthogonalEdgeStyle;rounded=0;orthogonalLoop=1;jettySize=auto;html=1;entryX=0.526;entryY=1.06;entryDx=0;entryDy=0;entryPerimeter=0;" edge="1" parent="1" source="DiCBoK7EQ5oCpldY1Xnq-7" target="DiCBoK7EQ5oCpldY1Xnq-2">
          <mxGeometry relative="1" as="geometry" />
        </mxCell>
        <mxCell id="DiCBoK7EQ5oCpldY1Xnq-18" style="edgeStyle=orthogonalEdgeStyle;rounded=0;orthogonalLoop=1;jettySize=auto;html=1;entryX=0.739;entryY=1.073;entryDx=0;entryDy=0;entryPerimeter=0;" edge="1" parent="1" source="DiCBoK7EQ5oCpldY1Xnq-8" target="DiCBoK7EQ5oCpldY1Xnq-2">
          <mxGeometry relative="1" as="geometry" />
        </mxCell>
        <mxCell id="DiCBoK7EQ5oCpldY1Xnq-19" style="edgeStyle=orthogonalEdgeStyle;rounded=0;orthogonalLoop=1;jettySize=auto;html=1;" edge="1" parent="1" source="DiCBoK7EQ5oCpldY1Xnq-9">
          <mxGeometry relative="1" as="geometry">
            <mxPoint x="690" y="550" as="targetPoint" />
          </mxGeometry>
        </mxCell>
      </root>
    </mxGraphModel>
  </diagram>
</mxfile>
